<svg width="20" height="20" viewBox="0 0 20 20" fill="none" xmlns="http://www.w3.org/2000/svg">
<path d="M14.6083 6.22501L10.4417 2.05834C10.1975 1.81417 9.80167 1.81417 9.55833 2.05834L5.39167 6.22501C5.14667 6.46917 5.14667 6.86501 5.39167 7.10834C5.63667 7.35167 6.03083 7.35334 6.275 7.10834L9.375 4.00834V12.5C9.375 12.845 9.655 13.125 10 13.125C10.345 13.125 10.625 12.845 10.625 12.5V4.00834L13.725 7.10834C13.8467 7.23084 14.0067 7.29167 14.1667 7.29167C14.3267 7.29167 14.4867 7.23167 14.6083 7.10834C14.8525 6.86417 14.8525 6.46917 14.6083 6.22501Z" fill="#6E767D"/>
<path d="M16.4233 18.2867H3.57667C2.52334 18.2867 1.66667 17.43 1.66667 16.3767V11.6667C1.66667 11.3217 1.94667 11.0417 2.29167 11.0417C2.63667 11.0417 2.91667 11.3217 2.91667 11.6667V16.3767C2.91667 16.7408 3.2125 17.0367 3.57667 17.0367H16.4233C16.7875 17.0367 17.0833 16.7408 17.0833 16.3767V11.6667C17.0833 11.3217 17.3633 11.0417 17.7083 11.0417C18.0533 11.0417 18.3333 11.3217 18.3333 11.6667V16.3767C18.3333 17.43 17.4767 18.2867 16.4233 18.2867Z" fill="#6E767D"/>
</svg>
